<?xml version="1.0" standalone="no"?>
<!DOCTYPE svg PUBLIC "-//W3C//DTD SVG 20010904//EN"
 "http://www.w3.org/TR/2001/REC-SVG-20010904/DTD/svg10.dtd">
<svg version="1.0" xmlns="http://www.w3.org/2000/svg"
 width="1024.000000pt" height="1024.000000pt" viewBox="0 0 1024.000000 1024.000000"
 preserveAspectRatio="xMidYMid meet">
<metadata>
Created by potrace 1.11, written by Peter Selinger 2001-2013
</metadata>
<g transform="translate(0.000000,1024.000000) scale(0.100000,-0.100000)"
fill="#000000" stroke="none">
<path d="M1656 9602 c-2 -1 -50 -4 -108 -7 -58 -2 -117 -9 -131 -14 -14 -5
-27 -7 -30 -4 -3 3 -12 1 -19 -3 -7 -5 -23 -10 -35 -12 -29 -4 -156 -57 -213
-90 -71 -40 -154 -106 -209 -165 -64 -70 -84 -95 -114 -142 -17 -27 -35 -53
-40 -56 -5 -3 -8 -9 -8 -13 1 -3 -10 -31 -24 -61 -14 -31 -25 -62 -25 -70 0
-7 -4 -16 -9 -19 -5 -3 -12 -20 -15 -38 -3 -18 -9 -44 -12 -58 -3 -14 -8 -41
-12 -60 -9 -45 -9 -7293 -1 -7340 42 -224 139 -405 297 -554 52 -49 162 -126
180 -126 6 0 12 -4 12 -9 0 -11 137 -68 211 -87 88 -23 98 -24 173 -29 37 -2
70 -6 73 -8 2 -3 20 -1 39 3 19 4 36 4 39 0 3 -4 21 -4 40 0 19 4 37 4 40 0 3
-4 21 -4 40 0 19 4 37 4 40 0 3 -4 20 -5 37 -1 18 4 35 8 38 8 3 1 24 -2 48
-7 23 -4 45 -4 47 0 3 4 21 4 40 0 19 -4 35 -4 35 0 0 4 18 4 40 0 22 -4 40
-4 40 0 0 4 20 4 45 0 25 -4 45 -4 45 -1 0 7 89 5 96 -2 3 -3 18 -2 32 2 15 4
38 5 52 1 14 -4 34 -4 45 0 11 4 29 4 41 0 11 -5 26 -5 33 -1 7 5 30 5 52 1
21 -4 39 -4 39 0 0 4 20 4 45 0 25 -4 45 -4 45 -1 0 3 21 5 47 3 27 -1 54 -3
61 -3 6 0 29 0 50 0 20 0 46 1 57 1 11 1 27 1 35 1 140 -3 271 -1 279 3 5 4
12 2 15 -3 3 -5 21 -5 41 -1 19 4 37 4 40 0 3 -4 21 -4 40 0 19 4 37 4 40 0 3
-4 21 -4 40 0 19 4 37 4 40 0 3 -4 21 -4 40 0 19 4 37 4 40 0 3 -4 21 -4 40 0
19 4 37 4 40 0 3 -4 21 -4 40 0 19 4 37 4 40 0 3 -4 20 -5 37 -1 33 7 92 5
116 -4 6 -2 12 -1 12 3 0 7 126 6 147 -2 7 -3 15 -2 17 3 3 4 22 5 43 2 21 -4
57 -4 80 -1 23 4 47 4 54 0 6 -4 25 -4 43 0 17 4 40 4 51 0 11 -4 29 -4 40 0
11 4 29 4 40 0 11 -4 29 -4 40 0 11 4 34 4 52 -1 18 -4 33 -4 33 0 0 4 19 5
43 1 23 -3 63 -3 90 1 26 3 49 3 52 1 4 -4 239 -5 261 -1 5 1 14 0 19 -1 22
-4 146 0 155 5 5 3 11 1 14 -4 3 -5 21 -5 41 -1 19 4 37 4 40 0 3 -4 21 -4 40
0 19 4 37 4 40 0 3 -4 21 -4 40 0 19 4 37 4 40 0 3 -4 21 -4 40 0 19 4 37 4
40 0 3 -4 21 -4 40 0 19 4 37 4 40 0 3 -4 21 -4 40 0 19 4 37 4 40 0 3 -4 22
-4 42 1 21 4 38 8 38 8 0 -6 87 -14 90 -9 3 4 21 4 40 0 19 -4 35 -4 35 0 0 4
18 4 40 0 22 -4 40 -4 40 0 0 4 20 4 45 0 25 -4 45 -4 45 -1 0 7 89 5 96 -2 3
-3 18 -2 32 2 15 4 38 5 52 1 14 -4 34 -4 45 0 11 4 29 4 41 0 11 -5 26 -5 33
-1 7 5 30 5 52 1 21 -4 39 -4 39 0 0 4 20 4 45 0 25 -4 45 -4 45 -1 0 3 21 5
47 3 27 -1 54 -3 61 -3 6 0 29 0 50 0 20 0 46 1 57 1 11 1 27 1 35 1 140 -3
271 -1 279 3 5 4 12 2 15 -3 3 -5 21 -5 41 -1 19 4 37 4 40 0 3 -4 21 -4 40 0
19 4 37 4 40 0 3 -4 21 -4 40 0 19 4 37 4 40 0 3 -4 21 -4 40 0 19 4 37 4 40
0 3 -4 21 -4 40 0 19 4 37 4 40 0 3 -4 21 -4 40 0 19 4 37 4 40 0 3 -4 20 -5
37 -1 33 7 92 5 116 -4 6 -2 12 -1 12 3 0 7 126 6 147 -2 7 -3 15 -2 17 3 3 4
22 5 43 2 21 -4 57 -4 80 -1 23 4 47 4 54 0 6 -4 25 -4 43 0 17 4 40 4 51 0
11 -4 29 -4 40 0 11 4 29 4 40 0 11 -4 29 -4 40 0 11 4 34 4 52 -1 18 -4 33
-4 33 0 0 4 19 5 43 1 23 -3 64 -3 90 1 26 3 50 3 52 -1 2 -4 24 -4 49 0 24 4
52 3 60 -2 9 -5 16 -5 16 0 0 4 10 8 23 9 36 1 100 11 135 22 18 5 33 9 35 9
5 -2 53 14 85 28 90 39 112 51 172 89 36 23 82 57 103 77 20 19 37 33 37 31 0
-12 108 120 145 177 52 80 103 193 121 272 34 140 33 75 33 3773 0 3568 0
3621 -19 3705 -27 117 -26 111 -51 171 -56 132 -139 254 -229 335 -62 56 -79
69 -140 109 -93 60 -237 122 -300 130 -8 1 -28 5 -45 9 -68 15 -295 25 -295
13 0 -5 -4 -6 -9 -2 -12 7 -139 11 -145 4 -3 -3 -31 -2 -61 1 -31 3 -58 2 -61
-2 -3 -5 -9 -6 -14 -3 -5 3 -29 5 -52 5 -24 0 -52 0 -63 0 -96 1 -154 1 -161
-1 -5 -1 -13 0 -19 1 -5 1 -32 1 -60 0 -27 0 -54 -1 -60 -1 -5 0 -62 0 -125 1
-63 0 -122 0 -130 -1 -8 0 -44 0 -80 0 -36 1 -72 1 -80 0 -8 0 -44 0 -80 0
-36 1 -72 1 -80 0 -8 0 -44 0 -80 1 -36 0 -94 0 -130 0 -36 1 -69 1 -75 1 -25
1 -133 0 -160 -2 -16 0 -34 -1 -40 0 -86 5 -115 5 -115 -2 0 -5 -5 -5 -10 -2
-6 4 -31 6 -55 5 -59 -1 -62 -1 -123 2 -28 2 -52 -1 -52 -5 0 -5 -5 -5 -10 -2
-6 4 -31 6 -55 5 -59 -1 -62 -1 -123 2 -28 2 -52 -1 -52 -5 0 -5 -5 -5 -10 -2
-6 4 -31 6 -55 5 -25 0 -53 -1 -62 -1 -107 2 -140 2 -148 1 -6 -1 -14 -2 -20
0 -8 1 -174 1 -230 -1 -5 0 -39 0 -75 0 -36 1 -72 1 -80 0 -8 0 -44 0 -80 0
-36 1 -72 1 -80 0 -8 0 -44 0 -80 0 -36 1 -73 1 -82 0 -10 0 -65 0 -122 1 -57
0 -107 0 -112 -1 -5 -1 -11 -1 -14 0 -14 6 -110 5 -110 0 0 -4 -17 -3 -38 1
-20 3 -49 3 -64 -1 -15 -4 -29 -4 -32 -1 -3 3 -36 4 -73 3 -38 -1 -72 -2 -78
-2 -68 2 -102 2 -110 1 -5 -1 -14 -2 -19 -1 -4 1 -27 2 -50 1 -22 0 -50 0 -61
0 -96 1 -154 1 -161 -1 -5 -1 -13 0 -19 1 -5 1 -32 1 -60 0 -27 0 -54 -1 -60
-1 -5 0 -62 0 -125 1 -63 0 -122 0 -130 -1 -8 0 -44 0 -80 0 -36 1 -72 1 -80
0 -8 0 -44 0 -80 0 -36 1 -72 1 -80 0 -8 0 -44 0 -80 1 -36 0 -94 0 -130 0
-36 1 -69 1 -75 1 -25 1 -133 0 -160 -2 -16 0 -34 -1 -40 0 -86 5 -115 5 -115
-2 0 -5 -5 -5 -10 -2 -6 4 -31 6 -55 5 -59 -1 -62 -1 -123 2 -28 2 -52 -1 -52
-5 0 -5 -5 -5 -10 -2 -6 4 -31 6 -55 5 -59 -1 -62 -1 -123 2 -28 2 -52 -1 -52
-5 0 -5 -5 -5 -10 -2 -6 4 -31 6 -55 5 -25 0 -53 -1 -62 -1 -107 2 -140 2
-148 1 -6 -1 -14 -2 -20 0 -5 1 -57 1 -115 0 -58 0 -116 0 -130 0 -14 1 -47 2
-73 3 -27 1 -50 1 -51 -1z m1944 -1922 c0 6 10 6 26 0 14 -6 23 -7 21 -2 -3 4
8 7 23 7 15 0 26 -3 23 -7 -2 -5 7 -4 21 2 16 6 27 6 31 0 4 -7 13 -6 25 0 13
7 21 7 25 0 4 -6 11 -7 17 -4 16 10 68 11 68 1 0 -4 9 -3 19 3 13 7 22 7 26 0
4 -6 13 -7 24 -1 9 5 23 6 31 1 7 -4 24 -4 37 1 14 5 23 5 23 -1 0 -6 9 -6 23
-1 14 5 30 5 40 0 11 -7 17 -6 17 0 0 7 8 7 25 1 16 -6 25 -6 25 0 0 6 10 6
26 0 14 -6 23 -7 21 -2 -3 4 8 7 24 7 16 0 29 -4 29 -8 0 -5 5 -5 11 -2 16 10
79 12 79 2 0 -4 9 -3 19 3 13 7 22 7 26 0 4 -6 13 -7 24 -1 9 5 23 6 31 1 7
-4 24 -4 37 1 14 5 23 5 23 -1 0 -6 9 -6 23 -1 14 5 30 5 40 0 11 -7 17 -6 17
0 0 7 8 7 25 1 16 -6 25 -6 25 0 0 6 10 6 26 0 14 -6 23 -7 21 -2 -3 4 8 7 24
7 16 0 29 -4 29 -8 0 -5 5 -5 11 -2 16 10 79 12 79 2 0 -4 9 -3 19 3 13 7 22
7 26 0 4 -6 13 -7 24 -1 10 6 23 6 31 1 8 -5 21 -5 31 1 12 6 20 5 24 -1 4 -6
11 -7 18 -3 13 8 57 11 57 3 0 -7 66 -4 79 4 5 4 13 2 16 -4 4 -7 11 -8 18 -2
7 5 21 6 32 2 11 -4 30 -4 43 1 14 5 22 5 22 -2 0 -6 7 -6 19 1 14 7 22 7 27
-1 4 -7 10 -7 16 -1 6 6 20 7 32 3 11 -5 30 -5 41 -1 11 4 30 4 43 -1 14 -5
22 -5 22 2 0 6 5 7 11 4 6 -4 40 -9 77 -11 76 -4 132 -10 212 -24 86 -16 99
-19 109 -24 5 -3 26 -8 47 -12 22 -3 47 -10 57 -15 9 -5 17 -7 17 -3 0 3 6 2
13 -3 11 -10 78 -34 103 -39 19 -3 198 -87 236 -111 21 -13 40 -23 43 -23 5 0
186 -123 216 -147 94 -77 289 -265 289 -279 0 -3 11 -17 25 -32 14 -15 46 -58
72 -97 26 -38 49 -72 52 -75 21 -18 171 -319 171 -341 0 -8 4 -19 8 -25 5 -5
14 -29 21 -54 8 -25 16 -52 19 -60 14 -40 33 -111 37 -140 1 -14 4 -25 5 -25
3 0 9 -38 12 -67 1 -16 5 -28 8 -28 21 0 17 -492 -5 -600 -3 -14 -7 -42 -10
-64 -3 -21 -8 -43 -12 -49 -4 -7 -8 -18 -8 -27 -1 -14 -30 -115 -43 -150 -3
-8 -6 -22 -8 -30 -2 -8 -7 -23 -13 -35 -5 -11 -24 -55 -42 -98 -33 -82 -140
-277 -176 -322 -4 -6 -28 -37 -52 -70 -56 -75 -77 -99 -177 -199 -104 -105
-140 -136 -153 -136 -6 0 -11 -4 -11 -8 0 -5 -21 -24 -47 -42 -27 -19 -49 -38
-51 -42 -2 -4 -8 -8 -12 -8 -5 0 -28 -13 -52 -28 -24 -16 -59 -38 -78 -48 -19
-10 -38 -23 -42 -29 -4 -5 -8 -6 -8 -2 0 5 -13 -1 -29 -12 -16 -12 -34 -21
-40 -21 -6 0 -25 -8 -43 -18 -27 -15 -118 -53 -138 -58 -3 0 -12 -3 -20 -7
-29 -11 -153 -47 -183 -53 -17 -2 -33 -6 -36 -8 -3 -2 -22 -7 -41 -10 -19 -3
-48 -8 -65 -12 -48 -9 -93 -13 -204 -19 -57 -3 -107 -7 -110 -10 -4 -2 -13 0
-20 5 -8 4 -27 4 -42 0 -16 -5 -29 -6 -29 -2 0 4 -29 7 -65 7 -36 0 -65 -3
-65 -7 0 -4 -12 -3 -27 1 -16 4 -39 5 -53 1 -14 -4 -35 -3 -46 1 -12 4 -24 5
-27 3 -7 -7 -126 -8 -133 -1 -3 3 -19 1 -35 -3 -16 -5 -29 -6 -29 -2 0 8 -68
7 -76 -1 -3 -3 -16 -2 -28 3 -13 4 -29 4 -36 0 -8 -5 -21 -5 -29 -1 -8 5 -27
5 -43 1 -15 -5 -28 -6 -28 -2 0 8 -85 6 -106 -2 -8 -3 -14 0 -14 6 0 7 -4 7
-14 -1 -10 -9 -12 -20 -6 -41 5 -17 5 -32 0 -35 -5 -3 -5 -18 0 -34 4 -15 4
-34 0 -41 -4 -6 -4 -27 0 -45 4 -18 4 -39 0 -45 -4 -7 -4 -26 0 -41 5 -16 5
-31 0 -34 -5 -3 -5 -18 0 -34 4 -15 4 -34 0 -41 -4 -6 -4 -27 0 -45 4 -18 4
-39 0 -45 -4 -7 -4 -25 0 -40 4 -15 4 -33 0 -40 -5 -7 -5 -23 0 -34 4 -12 4
-30 0 -41 -4 -11 -4 -32 1 -47 4 -15 4 -30 -1 -33 -4 -3 -4 -21 0 -40 4 -19 4
-37 0 -40 -5 -3 -5 -18 -1 -33 5 -15 5 -36 1 -47 -4 -11 -4 -32 1 -47 4 -14 5
-29 2 -31 -2 -3 -6 -20 -7 -39 -7 -86 -51 -165 -123 -219 -47 -35 -149 -77
-160 -65 -3 3 -14 1 -24 -5 -11 -5 -19 -6 -19 -2 0 4 -11 8 -25 8 -14 0 -25
-2 -25 -5 0 -7 -127 -3 -139 5 -6 3 -11 2 -11 -4 0 -7 -8 -7 -25 -1 -16 6 -25
6 -25 -1 0 -6 -6 -6 -18 0 -10 5 -24 6 -32 1 -8 -5 -21 -5 -31 1 -11 6 -20 5
-24 -1 -4 -7 -12 -7 -23 -1 -10 6 -23 6 -34 0 -12 -6 -18 -6 -18 0 0 7 -9 7
-25 1 -14 -5 -25 -6 -25 -2 0 4 -11 7 -25 7 -14 0 -25 -2 -25 -5 0 -12 -177 7
-215 22 -107 43 -185 142 -199 252 -4 27 -9 53 -12 58 -3 4 0 8 6 8 8 0 8 6 0
20 -7 13 -7 20 -1 20 6 0 8 7 5 15 -9 22 -10 195 -2 195 4 0 3 11 -2 25 -6 16
-6 25 1 25 6 0 6 7 -1 19 -7 13 -7 22 0 26 6 4 7 12 1 23 -5 9 -5 26 0 39 5
14 5 23 -1 23 -6 0 -6 9 0 25 6 16 6 25 0 25 -6 0 -6 9 0 25 5 14 6 25 2 25
-4 0 -7 11 -7 25 0 14 3 25 7 25 4 0 4 10 -1 23 -5 12 -5 32 0 45 5 13 5 22
-1 22 -6 0 -6 9 0 25 6 16 6 25 0 25 -6 0 -6 9 0 25 5 14 6 25 2 25 -4 0 -7
11 -7 25 0 14 3 25 7 25 4 0 3 11 -2 25 -6 15 -6 26 1 30 5 4 6 11 3 17 -10
17 -11 51 -2 71 6 11 5 17 -2 17 -8 0 -8 6 0 20 8 14 8 20 0 20 -8 0 -8 6 0
20 8 14 8 20 0 20 -8 0 -8 6 0 20 8 14 8 20 0 20 -8 0 -8 6 0 20 8 14 8 20 0
20 -8 0 -8 6 0 20 8 14 8 20 0 20 -8 0 -8 6 0 20 8 14 8 20 0 20 -8 0 -8 6 0
20 8 14 8 20 0 20 -8 0 -8 6 0 20 8 14 8 20 0 20 -8 0 -8 6 0 20 8 14 8 20 0
20 -8 0 -8 6 0 20 8 14 8 20 0 20 -8 0 -8 6 0 20 8 14 8 20 0 20 -8 0 -8 6 0
20 8 14 8 20 0 20 -8 0 -8 6 0 20 8 14 8 20 0 20 -8 0 -8 6 0 20 8 14 8 20 0
20 -7 0 -8 6 -1 18 5 9 10 19 12 22 1 3 -3 15 -9 27 -8 14 -9 24 -2 28 7 4 7
12 1 23 -6 10 -6 23 0 34 6 12 6 18 0 18 -6 0 -6 11 -1 30 5 19 5 30 -1 30 -6
0 -6 7 1 19 7 13 7 22 0 26 -7 4 -7 12 0 25 7 13 7 21 0 25 -7 4 -7 12 0 25 7
13 7 21 0 25 -7 4 -7 12 0 24 5 10 6 21 3 25 -9 9 -10 56 -1 56 4 0 3 11 -2
25 -6 16 -6 25 0 25 6 0 6 9 0 25 -6 16 -6 25 0 25 6 0 6 9 0 25 -6 15 -6 26
1 30 6 4 6 13 0 23 -6 10 -6 23 0 34 7 12 6 18 -1 18 -7 0 -8 6 0 19 7 13 7
22 0 26 -7 4 -7 12 0 25 7 13 7 21 0 25 -7 4 -7 12 0 25 7 13 7 21 0 25 -7 4
-7 12 0 24 5 10 6 21 3 25 -9 9 -10 56 -1 56 4 0 3 11 -2 25 -6 16 -6 25 0 25
6 0 6 9 0 25 -6 16 -6 25 0 25 6 0 6 9 0 25 -6 15 -6 26 0 30 7 4 6 13 0 26
-8 13 -7 19 0 19 7 0 8 6 0 19 -7 13 -7 22 0 26 7 4 7 12 0 25 -7 13 -7 21 0
25 6 4 7 11 4 17 -10 17 -11 51 -2 71 6 11 5 17 -2 17 -8 0 -8 6 0 20 8 14 8
20 0 20 -8 0 -8 6 0 20 8 14 8 20 0 20 -8 0 -8 6 0 20 8 14 8 20 0 20 -8 0 -8
6 0 20 8 14 8 20 0 20 -8 0 -8 6 0 20 8 14 8 20 0 20 -8 0 -8 6 0 20 8 14 8
20 0 20 -8 0 -8 6 0 20 8 14 8 20 0 20 -8 0 -8 6 0 20 8 14 8 20 0 20 -8 0 -8
6 0 20 8 14 8 20 0 20 -8 0 -8 6 0 20 8 14 8 20 0 20 -8 0 -8 6 0 20 8 14 8
20 0 20 -8 0 -8 6 0 20 8 14 8 20 0 20 -8 0 -8 6 0 20 8 14 8 20 0 20 -8 0 -8
6 0 20 8 14 8 20 0 20 -8 0 -8 6 0 20 7 14 8 26 0 39 -7 14 -7 22 0 26 6 4 7
12 3 18 -8 13 -7 93 2 106 3 6 1 12 -5 16 -7 4 -7 12 0 25 6 12 7 21 0 25 -6
4 -6 15 0 30 5 14 6 25 2 25 -9 0 -6 75 3 90 3 6 2 10 -4 10 -7 0 -7 8 -1 26
6 14 7 23 2 21 -4 -3 -7 30 -7 74 0 43 3 79 7 79 4 0 3 11 -2 25 -6 16 -6 25
1 25 6 0 6 7 -1 19 -7 13 -7 22 0 26 6 4 7 12 1 23 -5 9 -5 26 0 39 5 14 5 23
-1 23 -6 0 -6 9 0 25 6 16 6 25 0 25 -6 0 -6 9 0 25 5 14 6 25 2 25 -4 0 -7
11 -7 25 0 14 2 25 5 25 3 0 5 11 5 25 0 14 -4 25 -8 25 -5 0 -5 5 -2 11 4 5
9 25 12 42 9 63 89 187 121 187 5 0 12 6 15 14 8 19 124 56 170 53 20 -1 37 1
37 5 0 4 11 3 25 -2 16 -6 25 -6 25 0z"/>
<path d="M4500 6401 c-16 -7 -20 -18 -20 -56 0 -14 0 -37 -1 -52 0 -16 0 -35
0 -43 1 -8 1 -26 0 -40 0 -14 0 -32 0 -40 1 -8 1 -26 0 -40 0 -14 0 -32 0 -40
1 -8 1 -26 0 -40 0 -14 0 -32 0 -40 1 -8 1 -26 0 -40 0 -14 0 -32 0 -40 1 -8
1 -26 0 -40 0 -14 0 -32 0 -40 2 -26 1 -54 -3 -75 -1 -11 0 -34 4 -51 4 -18 4
-38 0 -45 -5 -7 -5 -22 0 -34 5 -12 5 -27 0 -34 -4 -7 -4 -28 0 -47 4 -19 4
-36 0 -39 -4 -3 -4 -20 0 -39 4 -19 4 -40 0 -47 -5 -7 -5 -22 0 -34 5 -12 5
-27 0 -34 -4 -7 -4 -28 0 -47 4 -19 4 -36 0 -39 -4 -3 -4 -20 0 -39 4 -19 4
-40 0 -47 -5 -7 -5 -22 -1 -33 5 -12 6 -27 4 -33 -4 -12 9 -18 31 -14 4 1 38
1 75 1 36 0 86 0 111 1 25 1 52 1 60 1 8 -1 49 -1 90 -1 41 0 82 0 90 0 22 -1
129 0 257 2 62 1 113 -2 113 -6 0 -5 4 -6 8 -3 5 3 49 6 98 7 88 1 177 13 218
29 11 4 26 9 31 10 15 3 127 63 149 80 42 31 156 153 156 166 0 8 4 14 9 14 9
0 56 100 72 153 16 52 19 69 24 123 2 29 5 56 6 60 1 5 0 11 -1 14 -1 3 -3 25
-5 50 -2 25 -6 56 -9 70 -3 14 -8 36 -11 49 -2 13 -23 62 -46 109 -50 100
-151 209 -245 262 -32 19 -60 33 -62 32 -1 -1 -15 4 -31 12 -40 21 -139 42
-194 42 -26 -1 -47 2 -47 6 0 4 -13 3 -30 -2 -17 -5 -32 -5 -35 0 -3 5 -16 5
-30 0 -15 -6 -27 -6 -30 0 -3 6 -15 6 -30 0 -15 -6 -27 -6 -30 0 -3 6 -15 6
-30 0 -13 -5 -26 -6 -29 -2 -3 5 -30 5 -61 2 -31 -3 -58 -3 -61 2 -3 4 -16 3
-29 -2 -15 -6 -27 -6 -30 0 -3 6 -15 6 -30 0 -15 -6 -27 -6 -30 0 -3 6 -15 6
-30 0 -15 -6 -27 -6 -30 0 -3 6 -15 6 -30 0 -15 -6 -27 -6 -30 0 -3 6 -15 6
-30 0 -15 -6 -27 -6 -30 0 -3 6 -15 6 -30 0 -15 -6 -27 -6 -30 0 -3 6 -15 6
-30 0 -15 -6 -27 -6 -30 0 -3 6 -15 6 -30 0 -15 -6 -27 -6 -30 0 -3 6 -15 6
-29 0 -13 -5 -27 -5 -32 0 -5 4 -16 5 -24 1z"/>
</g>
</svg>
